# xmcd
#
# Track frame offsets: 
#        150
#        14357
#        25971
#        49469
#        64172
#        77465
#        95145
#        113947
#        129974
#        146237
#        160378
#        173954
#        194281
#        208433
#        224777
#
# Disc length: 3272 seconds
#
# Revision: 0
# Processed by: cddbd v1.5.2PL0 Copyright (c) Steve Scherf et al.
# Submitted via: ExactAudioCopy v1.0b1
#
DISCID=ec0cc60f
DTITLE=Суисайд - Брутальная Тематика
DYEAR=2006
DGENRE=Hip-Hop
TTITLE0=У Микрофона Снова
TTITLE1=Рок Суперcтар
TTITLE2=Статус Кво (feat. Толстый Мо)
TTITLE3=Сорваны С Цепи (feat. Прометей (АнтАнтА))
TTITLE4=Старое По-новому
TTITLE5=По Мне, Так Я Лучше
TTITLE6=То, Что Беспокоит Нас (feat. АнтАнтА)
TTITLE7=Паутина (feat. Песочные Люди)
TTITLE8=Чаща
TTITLE9=Смотри В Оба
TTITLE10=Грязный Порох (feat. Бледнолицые Нигга'дяи)
TTITLE11=Кидай Камнями (feat. Прометей (АнтАнтА) and Фетис (Доброе Зло))
TTITLE12=Челюсти (Пыль)
TTITLE13=Чаща [Remix] (Bonus Track)
TTITLE14=Кидай Камнями [Remix] (Bonus Track)
EXTD=
EXTT0=
EXTT1=
EXTT2=
EXTT3=
EXTT4=
EXTT5=
EXTT6=
EXTT7=
EXTT8=
EXTT9=
EXTT10=
EXTT11=
EXTT12=
EXTT13=
EXTT14=
PLAYORDER=
